<?xml version="1.0" encoding="utf-8"?>
<!-- Generator: Adobe Illustrator 25.0.1, SVG Export Plug-In . SVG Version: 6.00 Build 0)  -->
<svg version="1.1" id="Ebene_1" xmlns="http://www.w3.org/2000/svg" xmlns:xlink="http://www.w3.org/1999/xlink" x="0px" y="0px"
	 width="48px" height="48px" viewBox="0 0 48 48" style="enable-background:new 0 0 48 48;" xml:space="preserve">
<style type="text/css">
	.st0{fill-rule:evenodd;clip-rule:evenodd;fill:#039A9A;}
	.st1{fill:#90D033;}
</style>
<path class="st0" d="M2.28,46.14h1.27c1.94,0,3.54-1.27,3.63-3.64c0.08-2.28-1.18-3.64-3.04-3.64H2.28V46.14L2.28,46.14z M0,37h4.3
	c2.95,0,5.06,2.2,5.15,5.58c0,3.05-2.53,5.42-5.48,5.42H0V37L0,37z M29,37h7.34v1.86h-4.98v2.45H36v1.86h-4.64v3.05h5.23V48H29V37
	L29,37z M14.34,48v-1.78h3.04l-2.7-6.94L11.39,48H9.03l4.22-11h2.87l4.3,11H14.34L14.34,48z M18.56,38.86V37h9.45v1.86h-3.46V48
	H22.1v-9.14H18.56L18.56,38.86z M42.18,37v1.86h2.78l-2.53,6.68L39.31,37h-2.45l4.3,11h2.62L48,37H42.18L42.18,37z"/>
<polygon class="st1" points="0,0 48,0 48,34 0,34 0,0 "/>
</svg>
